<?xml-stylesheet type="text/css" href="../style.css" ?>
<svg xmlns="http://www.w3.org/2000/svg" viewBox="0 0 438 438">
  <g transform="translate(0.000000,438.000000) scale(0.100000,-0.100000)" stroke="none">
    <path fill="#000000" d="M1940 4344 c-19 -2 -87 -9 -150 -15 -581 -55 -1051 -279 -1109 -529
    -6 -25 -24 -101 -40 -170 -55 -232 -66 -325 -66 -570 0 -173 4 -247 18 -320
    100 -536 424 -871 972 -1006 84 -21 272 -53 311 -54 42 -1 77 -426 72 -870
    l-3 -265 -120 -7 c-263 -15 -531 -63 -646 -114 -56 -25 -109 -72 -109 -96 0
    -6 17 -28 39 -48 185 -177 1312 -228 1874 -86 226 58 289 138 164 210 -93 53
    -290 97 -548 121 -96 9 -189 18 -208 21 l-34 5 6 422 c6 401 14 537 37 653
    l11 52 67 7 c200 20 473 95 623 171 170 85 354 242 447 380 240 357 291 851
    148 1439 -19 77 -41 157 -50 177 -21 49 -117 151 -185 198 -193 130 -500 229
    -861 276 -118 15 -577 28 -660 18z m584 -109 c413 -43 745 -158 908 -313 143
    -136 142 -262 -3 -397 -36 -33 -97 -78 -137 -99 -40 -22 -72 -42 -72 -45 0 -3
    21 -19 46 -34 42 -25 50 -27 76 -16 52 21 151 89 199 136 26 25 49 41 52 36
    19 -31 41 -265 41 -438 0 -212 -14 -313 -65 -480 -90 -291 -279 -515 -554
    -653 -137 -69 -365 -131 -557 -151 -144 -16 -497 -14 -630 4 -347 46 -601 157
    -789 344 -156 157 -254 350 -306 607 -25 124 -25 514 0 659 10 54 20 101 22
    103 2 2 27 -16 55 -40 28 -24 87 -66 131 -93 l81 -49 54 29 c30 16 54 32 54
    35 0 3 -36 25 -79 48 -440 243 -260 583 394 743 111 27 340 64 445 72 136 10
    505 6 634 -8z"/>
    <path fill="#9c1550" d="M1895 3569 c-131 -12 -321 -44 -443 -75 -108 -28 -302 -101 -302
    -114 0 -10 222 -84 331 -109 230 -54 355 -65 694 -65 353 0 469 12 720 73 124
    31 291 87 300 101 7 12 -181 83 -297 114 -288 74 -674 103 -1003 75z"/>
    <path fill="#9c1550" d="M956 3255 c-103 -102 -126 -188 -102 -382 31 -249 87 -409 196 -568
    192 -277 517 -420 1003 -441 341 -15 664 40 882 148 113 57 190 114 276 206
    158 169 250 390 279 675 20 194 -1 268 -104 366 -65 61 -53 61 -210 1 -282
    -107 -595 -155 -1006 -155 -426 1 -771 58 -1045 172 -44 18 -87 33 -96 33 -9
    0 -42 -25 -73 -55z"/>
  </g>
</svg>
