<?xml-stylesheet type="text/css" href="../style.css" ?>
<svg xmlns="http://www.w3.org/2000/svg" viewBox="0 0 438 438">
  <g transform="translate(0.000000,438.000000) scale(0.100000,-0.100000)" fill="#000000" stroke="none">
    <path d="M1520 4310 c-151 -31 -213 -134 -289 -480 -17 -74 -69 -340 -116
    -590 -47 -250 -89 -465 -92 -478 -5 -21 -9 -22 -52 -15 -25 4 -84 7 -131 6
    -151 -2 -281 -65 -417 -199 -389 -385 -517 -1187 -290 -1814 74 -206 162 -348
    291 -475 97 -95 165 -141 262 -177 87 -32 262 -32 356 0 187 65 363 242 483
    487 275 559 236 1335 -92 1827 -47 71 -166 201 -213 232 l-24 16 28 146 c16
    80 32 142 37 137 28 -29 497 -861 709 -1258 225 -421 267 -482 354 -504 25 -6
    119 -11 209 -11 l164 0 22 -116 c59 -315 189 -584 366 -759 127 -126 258 -191
    407 -202 419 -33 800 465 868 1136 73 728 -245 1426 -705 1546 -109 28 -260
    13 -357 -36 -20 -10 -39 -16 -41 -11 -11 17 -230 809 -229 825 0 11 13 70 27
    133 l27 113 96 3 97 3 3 133 3 132 -375 0 -375 0 -7 -35 c-12 -65 0 -84 79
    -120 40 -18 117 -47 172 -65 55 -18 103 -36 108 -39 4 -4 -5 -63 -21 -132
    l-28 -124 -732 -3 c-692 -2 -732 -1 -732 15 0 36 60 340 75 383 34 95 69 110
    268 110 l137 0 0 135 0 135 -147 -1 c-82 -1 -164 -5 -183 -9z m1236 -1067 c-3
    -10 -77 -331 -166 -713 -88 -382 -180 -775 -202 -873 -23 -97 -45 -174 -49
    -170 -4 5 -120 204 -257 443 -137 239 -362 632 -501 873 -138 241 -251 440
    -251 443 0 4 327 8 968 12 437 2 463 1 458 -15z m296 -697 c-201 -219 -331
    -565 -364 -971 l-11 -145 -71 6 c-39 4 -73 8 -74 10 -3 2 212 914 355 1509
    l46 190 79 -279 79 -278 -39 -42z m666 -131 c92 -44 207 -156 274 -270 60
    -101 120 -261 148 -390 27 -129 37 -373 21 -511 -44 -377 -217 -687 -445 -800
    -78 -38 -82 -39 -191 -39 -105 0 -114 2 -177 33 -37 18 -92 53 -122 77 -134
    110 -255 332 -306 564 l-19 84 297 -7 c414 -10 442 -1 442 128 0 63 -26 164
    -229 880 -39 136 -69 252 -66 256 8 13 71 32 129 39 77 10 163 -6 244 -44z
    m-2771 17 c8 -5 4 -45 -18 -152 -154 -760 -171 -885 -126 -951 19 -29 29 -34
    62 -34 39 0 40 1 62 57 21 51 85 356 173 821 18 92 36 167 41 167 15 0 117
    -108 157 -167 271 -400 283 -1049 27 -1487 -58 -100 -183 -223 -268 -264 -183
    -88 -369 -50 -528 108 -211 210 -321 549 -306 945 18 471 227 853 515 946 57
    18 187 25 209 11z m2346 -560 c64 -229 117 -423 117 -429 0 -10 -60 -13 -267
    -13 l-266 0 6 98 c14 206 64 399 143 552 41 80 130 210 143 210 3 0 59 -188
    124 -418z"/>
  </g>
</svg>
