<?xml-stylesheet type="text/css" href="../style.css" ?>
<svg xmlns="http://www.w3.org/2000/svg" viewBox="0 0 438 438">
  <g transform="translate(0.000000,438.000000) scale(0.100000,-0.100000)" stroke="none">
    <path fill="#ff0000" d="M3343 4348 c-46 -51 -110 -219 -145 -381 -28 -133 -30 -369 -4 -500
    23 -119 66 -248 117 -348 51 -102 79 -145 181 -272 138 -172 182 -291 183
    -482 0 -172 -46 -317 -137 -436 -50 -65 -58 -82 -58 -128 0 -27 7 -48 25 -69
    52 -62 109 -45 183 54 69 93 126 211 158 330 22 84 27 120 27 239 2 255 -62
    430 -232 640 -122 150 -197 297 -238 466 -14 58 -18 113 -17 259 0 210 11 266
    85 438 45 107 46 140 4 186 -32 35 -101 37 -132 4z"/>
    <path fill="#ff0000" d="M3783 4336 c-86 -97 -164 -247 -200 -384 -22 -83 -26 -118 -26 -242
    0 -124 4 -159 26 -241 40 -151 103 -268 223 -416 161 -196 231 -386 241 -648
    6 -181 -10 -292 -63 -428 -20 -51 -43 -111 -52 -133 -15 -39 -15 -44 3 -84 30
    -66 97 -85 149 -41 45 38 124 252 153 415 22 122 21 342 -1 466 -41 229 -138
    434 -287 610 -113 133 -171 263 -189 423 -19 160 25 342 116 476 95 141 101
    163 61 222 -20 30 -28 34 -73 37 -47 3 -53 0 -81 -32z"/>
    <path fill="#ffffff" d="M62 1018 c-11 -13 -25 -36 -31 -51 -15 -38 -15 -778 -1 -829 6 -22
    23 -46 39 -58 29 -20 33 -20 1794 -20 1265 0 1773 3 1796 11 60 21 61 25 61
    479 0 454 -1 458 -61 479 -23 8 -533 11 -1804 11 l-1772 0 -21 -22z"/>
    <path fill="#afaeae" d="M3827 1020 c-15 -12 -31 -38 -37 -58 -6 -22 -10 -188 -10 -420 0
    -411 2 -431 51 -466 46 -32 110 -13 138 41 15 29 16 846 1 874 -13 23 -61 49
    -93 49 -13 0 -36 -9 -50 -20z"/>
    <path fill="#afaeae" d="M4079 1011 l-29 -29 0 -432 0 -432 29 -29 c41 -40 91 -40 132 0 l29
    29 0 432 0 432 -29 29 c-41 40 -91 40 -132 0z"/>
  </g>
</svg>
