<?xml-stylesheet type="text/css" href="../style.css" ?>
<svg xmlns="http://www.w3.org/2000/svg" viewBox="0 0 438 438">
  <g transform="translate(0.000000,438.000000) scale(0.100000,-0.100000)" stroke="none">
    <path fill="#ffff00" d="M4040 4053 c-206 -24 -260 -39 -519 -150 -251 -108 -254 -110 -367
    -202 -113 -92 -115 -94 -321 -384 -165 -232 -208 -298 -207 -322 1 -16 6 -74
    13 -127 23 -197 7 -333 -60 -511 -17 -45 -37 -99 -45 -119 l-14 -38 159 0 159
    0 27 46 c15 26 92 176 171 334 168 338 221 424 336 545 85 89 112 108 343 246
    44 26 130 79 190 117 138 87 194 115 281 143 38 12 72 24 76 28 7 6 -7 77 -59
    294 l-25 107 -52 -2 c-28 0 -67 -3 -86 -5z"/>
    <path fill="#54ad54" d="M1577 3576 c-85 -31 -184 -97 -303 -206 -80 -72 -194 -209 -194 -231
    0 -4 35 -36 78 -71 195 -162 236 -234 312 -548 23 -95 30 -148 30 -222 l0 -98
    464 0 465 0 31 38 c95 115 144 293 143 527 0 226 -14 268 -150 458 -141 196
    -228 270 -405 342 -83 35 -84 35 -243 35 -143 0 -167 -3 -228 -24z"/>
    <path fill="#802d00" d="M340 3418 c-7 -24 -20 -74 -31 -113 -26 -96 -25 -110 12 -125 16 -7
    54 -37 82 -66 l52 -54 113 37 c125 42 121 34 69 122 -57 96 -221 240 -274 241
    -7 0 -17 -19 -23 -42z"/>
    <path fill="#ffa500" d="M3700 3332 c-215 -117 -247 -141 -370 -283 -64 -75 -86 -113 -206
    -357 -146 -299 -144 -291 -120 -422 l11 -65 622 -3 622 -2 11 41 c34 125 40
    310 15 455 -22 125 -80 325 -117 398 -42 85 -108 175 -156 213 -59 48 -140 93
    -165 93 -12 0 -78 -31 -147 -68z"/>
    <path fill="#ff0000" d="M810 3131 c-36 -4 -114 -24 -175 -44 -60 -19 -126 -39 -145 -42 -89
    -18 -204 -115 -262 -221 -15 -27 -39 -90 -54 -139 -25 -81 -28 -109 -32 -287
    l-4 -198 655 0 c757 0 673 -16 662 123 -16 204 -63 393 -130 527 -31 61 -49
    82 -141 158 -58 48 -122 96 -142 107 -41 22 -126 28 -232 16z"/>
    <path fill="#a25e5e" d="M33 2013 c11 -304 69 -542 192 -786 241 -478 673 -843 1215 -1028
    206 -71 375 -104 603 -119 437 -29 871 64 1250 268 497 266 856 699 996 1199
    45 160 61 269 68 456 l6 167 -2168 0 -2168 0 6 -157z"/>
  </g>
</svg>
