<?xml-stylesheet type="text/css" href="../style.css" ?>
<svg xmlns="http://www.w3.org/2000/svg" viewBox="0 0 438 438">
  <g transform="translate(0.000000,438.000000) scale(0.100000,-0.100000)" stroke="none">
    <path d="M895 4345 c-316 -70 -580 -288 -744 -613 -207 -412 -192 -937 39
    -1339 59 -102 99 -153 360 -459 113 -132 329 -386 480 -564 151 -178 370 -435
    485 -570 116 -135 314 -368 440 -518 127 -149 232 -271 235 -271 3 0 95 107
    205 237 110 130 292 344 405 476 113 133 271 317 350 411 80 93 203 237 273
    320 71 82 174 204 231 270 56 66 169 199 252 295 236 276 285 346 355 510 136
    316 151 698 39 1031 -122 365 -394 652 -715 753 -129 41 -194 49 -328 43 -144
    -6 -257 -35 -382 -98 -164 -84 -252 -165 -510 -469 -87 -102 -161 -189 -165
    -193 -4 -5 -101 100 -216 233 -236 275 -322 351 -479 430 -146 72 -265 100
    -424 99 -69 0 -153 -7 -186 -14z"/>
  </g>
</svg>
