<?xml-stylesheet type="text/css" href="../style.css" ?>
<svg xmlns="http://www.w3.org/2000/svg" viewBox="0 0 26 26">
  <path d="M 0.90625 -0.03125 C 0.863281 -0.0234375 0.820313 -0.0117188 0.78125 0 C 0.40625 0.0664063 0.105469 0.339844 0 0.703125 C -0.105469 1.070313 0.00390625 1.460938 0.28125 1.71875 L 24.28125 25.71875 C 24.679688 26.117188 25.320313 26.117188 25.71875 25.71875 C 26.117188 25.320313 26.117188 24.679688 25.71875 24.28125 L 22.53125 21.09375 C 24.726563 19.066406 26.09375 16.210938 26.09375 13.09375 C 26.09375 8.894531 23.800781 5.210938 20 3.3125 C 19.5 3.113281 18.886719 3.289063 18.6875 3.6875 C 18.386719 4.085938 18.601563 4.699219 19 5 C 22.101563 6.5 24 9.601563 24 13 C 24 15.617188 22.898438 17.960938 21.0625 19.625 L 19.78125 18.3125 C 21.101563 16.851563 21.90625 14.929688 21.90625 12.90625 C 21.90625 10.007813 20.289063 7.304688 17.6875 5.90625 C 17.1875 5.605469 16.613281 5.8125 16.3125 6.3125 C 16.210938 6.8125 16.414063 7.488281 16.8125 7.6875 C 18.8125 8.789063 20 10.800781 20 13 C 20 14.519531 19.417969 15.933594 18.4375 17 L 17.03125 15.59375 C 17.648438 14.902344 18 14.007813 18 13 C 18 11.199219 16.800781 9.59375 15 9.09375 C 14.5 8.992188 13.914063 9.3125 13.8125 9.8125 C 13.710938 10.414063 14 10.894531 14.5 11.09375 C 15.398438 11.292969 16 12.101563 16 13 C 16 13.433594 15.871094 13.855469 15.625 14.1875 L 13 11.5625 L 13 3.3125 C 13 2.011719 11.898438 1.695313 11 2.59375 L 7.46875 6.03125 L 1.71875 0.28125 C 1.511719 0.0585938 1.210938 -0.0546875 0.90625 -0.03125 Z M 4.6875 8.8125 L 4.40625 9 L 1 9 C 0.398438 9 0 9.398438 0 10 L 0 16 C 0 16.601563 0.398438 17 1 17 L 4.40625 17 L 10.90625 23.40625 C 11.90625 24.40625 12.90625 23.898438 12.90625 22.5 L 12.90625 17.09375 Z "></path>
</svg>
