<?xml-stylesheet type="text/css" href="../style.css" ?>
<svg xmlns="http://www.w3.org/2000/svg" viewBox="0 0 438 438">
  <g transform="translate(0.000000,438.000000) scale(0.100000,-0.100000)" stroke="none">
    <path fill="#f44336" d="M3115 4350 c-160 -25 -335 -96 -465 -188 -75 -53 -985 -970 -985
    -992 0 -5 77 -87 170 -182 689 -701 1182 -1205 1245 -1270 40 -43 77 -78 82
    -78 8 0 330 325 764 770 213 219 289 331 349 517 196 599 -151 1245 -750 1399
    -113 28 -306 40 -410 24z"/>
    <path fill="#ffffff" d="M1358 2870 c-19 -21 -249 -257 -510 -522 -262 -266 -497 -508 -523
    -538 -155 -181 -242 -410 -252 -660 -12 -311 87 -583 292 -799 212 -224 465
    -333 770 -333 221 0 401 54 583 175 86 57 154 123 557 534 586 597 630 642
    630 653 0 5 -106 116 -235 247 -556 562 -1236 1256 -1243 1269 -13 23 -33 16
  -69 -26z"/>
  </g>
</svg>
