<?xml-stylesheet type="text/css" href="../style.css" ?>
<svg xmlns="http://www.w3.org/2000/svg" viewBox="0 0 438 438">
  <g transform="translate(0.000000,438.000000) scale(0.100000,-0.100000)" stroke="none">
    <path fill="#b1afaf" d="M2080 4344 c-129 -8 -272 -27 -375 -50 -489 -110 -778 -359 -724
    -624 16 -77 40 -119 110 -194 50 -54 70 -68 122 -85 163 -53 370 -72 870 -78
    457 -6 657 3 901 38 180 26 237 46 299 107 202 198 172 434 -81 620 -214 158
    -550 253 -937 265 -71 3 -155 3 -185 1z m187 -119 c79 -52 32 -155 -71 -155
    -50 0 -81 17 -102 56 -17 31 -17 37 -4 62 32 58 117 76 177 37z m-562 -79 c40
    -17 57 -46 53 -89 -6 -62 -101 -97 -168 -62 -53 28 -67 87 -27 122 50 46 85
    53 142 29z m1082 -1 c42 -18 62 -41 63 -73 1 -77 -102 -118 -178 -72 -44 27
    -57 62 -36 101 15 30 62 58 97 59 10 0 34 -7 54 -15z m-729 -180 c37 -43 25
    -92 -28 -120 -60 -31 -140 -13 -166 36 -18 36 -18 52 4 78 43 53 146 56 190 6z
    m451 6 c35 -33 39 -65 13 -97 -63 -78 -212 -46 -212 46 0 12 13 35 29 51 25
    25 37 29 84 29 47 0 60 -4 86 -29z"/>
    <path fill="#ffffff" d="M1041 2958 c-85 -324 -126 -479 -281 -1073 -50 -192 -111 -424 -135
    -515 -24 -91 -56 -212 -70 -270 -14 -58 -53 -206 -87 -329 -63 -236 -66 -267
    -33 -332 113 -218 548 -353 1287 -400 246 -16 958 -6 1168 15 501 52 821 144
    978 282 111 97 127 159 83 324 -30 110 -90 341 -242 920 -38 146 -100 384
    -138 530 -38 146 -101 387 -139 535 -100 384 -163 619 -166 622 -1 1 -54 -6
    -117 -17 -517 -87 -1093 -101 -1624 -39 -149 17 -292 38 -376 55 l-26 5 -82
    -313z"/>
  </g>
</svg>
