<?xml-stylesheet type="text/css" href="../style.css" ?>
<svg xmlns="http://www.w3.org/2000/svg" viewBox="0 0 438 438">
  <g transform="translate(0.000000,438.000000) scale(0.100000,-0.100000)" stroke="none">
    <path fill="#ff8800" d="M2133 4363 c-38 -7 -83 -57 -83 -93 0 -43 115 -250 139 -250 21 0
    141 212 141 249 0 69 -94 114 -197 94z"/>
    <path fill="#ff8800" d="M1177 4006 c-47 -17 -67 -34 -78 -65 -13 -32 4 -74 38 -97 31 -20
    325 -112 341 -106 20 6 14 24 -33 97 -69 110 -95 145 -118 160 -34 21 -107 27
    -150 11z"/>
    <path fill="#ff8800" d="M3071 4004 c-19 -8 -40 -22 -48 -32 -32 -41 -133 -207 -133 -219 0
    -22 38 -15 190 33 164 51 200 75 200 131 0 77 -119 126 -209 87z"/>
    <path fill="#000000" d="M2036 3825 c-108 -22 -243 -93 -303 -159 -27 -30 -58 -71 -69 -93
    -25 -53 -31 -177 -10 -227 63 -150 248 -266 456 -285 239 -22 464 61 572 210
    91 126 75 280 -41 398 -61 63 -136 106 -246 141 -90 28 -260 36 -359 15z"/>
    <path fill="#000000" d="M1131 3500 c-58 -12 -52 -9 -488 -317 -450 -319 -426 -300 -452 -344
    -39 -63 -20 -128 53 -184 72 -55 73 -55 788 -55 l658 0 -2 -366 -3 -367 -110
    -41 c-264 -100 -493 -252 -647 -429 -265 -308 -311 -688 -136 -1145 39 -102
    81 -152 156 -189 52 -25 67 -28 167 -28 104 0 114 2 177 33 117 58 158 159
    108 270 -11 23 -33 89 -50 145 -41 131 -52 321 -26 431 58 244 282 444 625
    556 182 59 271 62 436 14 186 -54 356 -143 473 -249 98 -89 157 -184 192 -310
    19 -68 22 -96 17 -200 -5 -132 -26 -222 -84 -370 -41 -105 -40 -141 4 -207 21
    -31 47 -52 97 -78 60 -31 80 -35 157 -38 154 -7 258 43 312 148 34 66 89 227
    114 335 28 124 26 372 -5 485 -48 175 -135 322 -271 459 -164 165 -370 288
    -663 395 l-48 18 0 364 0 363 683 3 682 3 49 25 c73 37 106 83 106 147 0 41
    -5 58 -26 82 -19 23 -531 392 -835 603 -43 29 -145 51 -203 44 -63 -8 -149
    -49 -176 -83 -48 -61 -43 -138 11 -191 17 -17 107 -84 200 -149 93 -65 169
    -121 169 -125 0 -5 -520 -8 -1155 -8 -635 0 -1155 2 -1155 4 0 3 62 49 138
    102 268 189 282 203 282 279 0 113 -162 197 -319 165z"/>
  </g>
</svg>
