<?xml-stylesheet type="text/css" href="../style.css" ?>
<svg xmlns="http://www.w3.org/2000/svg" viewBox="0 0 438 438">
  <g transform="translate(0.000000,438.000000) scale(0.100000,-0.100000)" fill="#ffffff" stroke="none">
    <path d="M2140 4334 c-179 -23 -357 -154 -438 -324 -48 -102 -62 -163 -62
    -278 0 -168 58 -310 176 -428 111 -112 238 -165 394 -165 249 -1 461 158 546
    411 27 78 27 292 0 370 -47 138 -150 271 -260 335 -106 62 -246 92 -356 79z"/>
    <path d="M1890 3025 c-254 -41 -435 -113 -582 -230 -78 -61 -136 -137 -209
    -275 -147 -275 -269 -448 -420 -596 -125 -122 -224 -185 -331 -213 -127 -33
    -162 -49 -211 -91 -120 -106 -118 -290 5 -413 124 -123 294 -139 557 -51 197
    65 357 166 518 325 52 51 122 131 156 177 l62 83 8 -33 c11 -52 10 -332 -3
    -396 -28 -139 -87 -281 -144 -349 -25 -29 -27 -30 -78 -21 -29 6 -134 10 -233
    11 -153 0 -192 -3 -257 -21 -147 -40 -233 -100 -289 -204 -34 -63 -34 -63 -34
    -198 0 -131 1 -137 32 -203 112 -235 406 -315 1023 -277 181 12 930 79 940 85
    3 2 71 -8 150 -21 252 -42 491 -65 674 -65 323 0 499 46 623 163 119 114 144
    270 73 460 -41 110 -137 186 -285 224 -55 14 -109 18 -251 19 l-180 0 -46 51
    c-25 28 -59 75 -76 105 -70 124 -115 333 -110 512 l3 101 36 -49 c224 -313
    518 -533 810 -606 174 -44 321 -9 419 98 64 69 94 147 87 224 -12 135 -97 221
    -257 259 -123 29 -204 84 -341 228 -148 155 -283 356 -433 642 -54 103 -105
    187 -137 223 -134 152 -328 249 -616 308 -130 27 -524 36 -653 14z"/>
  </g>
</svg>
