<?xml version="1.0" encoding="utf-8"?>
<!-- Generator: Adobe Illustrator 21.0.0, SVG Export Plug-In . SVG Version: 6.00 Build 0)  -->
<svg version="1.1" id="teal" xmlns="http://www.w3.org/2000/svg" xmlns:xlink="http://www.w3.org/1999/xlink" x="0px" y="0px"
	 viewBox="0 0 90 70" style="enable-background:new 0 0 90 70;" xml:space="preserve">
<style type="text/css">
	.st0{fill:#8551FF;}
	.st1{fill:#7FD13B;}
	.st2{fill:#D24CFF;}
	.st3{fill:#FFFFFF;stroke:#000000;stroke-width:0.5;}
	.st4{fill:#1EBFE8;}
</style>
<g>
	<ellipse class="st0" cx="24.1" cy="29" rx="12.6" ry="12.6"/>
</g>
<g>
	<circle class="st1" cx="13.1" cy="41.2" r="9.9"/>
</g>
<g>
	<ellipse class="st2" cx="45" cy="39" rx="21.1" ry="22.6"/>
</g>
<g>
	<path class="st3" d="M23,1c-0.1,0-0.1,0-0.2,0c-0.5,0.1-1,0.3-1.3,0.7l-20,22c-0.7,0.7-0.6,2,0.1,2.8l42,42c0.7,0.7,2.1,0.7,2.8,0
		l42-42c0.7-0.7,0.7-2,0.1-2.8l-20-22C68.1,1.2,67.6,1,67,1H23z M23.9,5h10.4l-8.6,18H7.5L23.9,5z M38.7,5h12.6l8.6,18H30.2L38.7,5z
		 M55.7,5h10.4l16.4,18H64.3L55.7,5z M7.8,27h17.8l13.4,31.2L7.8,27z M30,27H60L45,61.9L30,27z M64.3,27h17.8L50.9,58.2L64.3,27z"/>
</g>
<g>
	<circle class="st4" cx="29.1" cy="49.4" r="14.8"/>
</g>
</svg>
