<?xml-stylesheet type="text/css" href="../style.css" ?>
<svg xmlns="http://www.w3.org/2000/svg" height="40" width="40" viewBox="0 0 24 24">
  <path style="opacity:0.7" d="M 9.785156 22 C 9.417969 22 9.066406 21.863281 8.796875 21.621094 C 8.496094 21.347656 8.332031 20.96875 8.332031 20.558594 L 8.34375 16.984375 L 4.011719 17.683594 C 3.398438 17.683594 2.867188 17.308594 2.65625 16.726563 C 2.445313 16.148438 2.617188 15.523438 3.09375 15.128906 L 6.597656 12.554688 L 2.683594 10.601563 C 2.148438 10.246094 1.914063 9.597656 2.097656 8.984375 C 2.285156 8.367188 2.839844 7.953125 3.476563 7.953125 L 3.691406 7.96875 L 7.898438 8.609375 L 6.65625 4.914063 C 6.515625 4.4375 6.601563 3.976563 6.871094 3.617188 C 7.402344 2.914063 8.570313 2.863281 9.148438 3.554688 L 12.101563 7.550781 L 17.421875 3.242188 C 18.164063 2.6875 19.128906 2.929688 19.558594 3.625 C 19.820313 4.050781 19.84375 4.570313 19.613281 5.023438 L 16.816406 10.101563 L 21.195313 11.492188 C 21.761719 11.773438 22.074219 12.378906 21.984375 12.996094 C 21.890625 13.617188 21.410156 14.105469 20.789063 14.207031 L 17.417969 14.765625 L 21.421875 18.738281 L 21.492188 18.878906 C 21.71875 19.332031 21.695313 19.851563 21.433594 20.277344 C 21.019531 20.949219 20.054688 21.164063 19.394531 20.726563 L 13.160156 17.933594 L 10.996094 21.339844 C 10.714844 21.761719 10.265625 22 9.785156 22 Z M 10.28125 14.71875 L 10.265625 18.898438 L 12.429688 15.496094 L 17.886719 17.941406 L 13.394531 13.480469 L 18.476563 12.640625 L 13.996094 11.226563 L 16.714844 6.292969 L 11.746094 10.316406 L 9.460938 7.21875 L 10.726563 10.988281 L 6.46875 10.339844 L 10.28125 12.234375 L 5.914063 15.441406 Z "></path>
</svg>
