<?xml-stylesheet type="text/css" href="../style.css" ?>
<svg xmlns="http://www.w3.org/2000/svg" viewBox="0 0 1024 1024">
  <polygon id="paper-background" points="250 120 250 950 800 950 800 330 650 120"/>
  <path d="M624 96h16l192 224v576.3c0 35-28.6 63.7-63.9 63.7h-480.2c-35.4 0-63.9-28.8-63.9-64.2v-735.5c0-35.5 28.7-64.2 64.1-64.2h335.9zM608 128h-320.1c-17.6 0-31.9 14.6-31.9 31.9v736.3c0 17.6 14.6 31.9 32 31.9h480c17.7 0 32-14.2 32-31.8v-544.2h-128.1c-35.3 0-63.9-28.4-63.9-64.2v-159.8zM640 144v143.7c0 17.8 14.4 32.3 31.9 32.3h118.5l-150.4-176z"/>
</svg>
