<?xml-stylesheet type="text/css" href="../style.css" ?>
<svg xmlns="http://www.w3.org/2000/svg" viewBox="0 0 50 50" fill="#7fd13b">
  <path d="M25.1 2C24.9 2 24.6 2.1 24.4 2.3L21.6 4.8 17.8 4C17.3 3.9 16.8 4.2 16.6 4.6L15.4 8.3 11.8 9.5C11.3 9.6 11 10.1 11.1 10.6L11.9 14.4 9.3 17.2C8.9 17.6 8.9 18.2 9.3 18.6L11.8 21.4 11 25.2C10.9 25.7 11.2 26.2 11.6 26.4L15.3 27.6 16.5 31.2C16.6 31.7 17.1 32 17.6 31.9L21.4 31.1 24.2 33.7C24.4 33.9 24.7 34 24.9 34 25.1 34 25.4 33.9 25.6 33.7L28.4 31.2 32.2 32C32.7 32.1 33.2 31.8 33.4 31.4L34.6 27.7 38.2 26.5C38.7 26.4 39 25.9 38.9 25.4L38.1 21.6 40.7 18.8C41.1 18.4 41.1 17.8 40.7 17.4L38.2 14.6 39 10.8C39.1 10.3 38.8 9.8 38.4 9.6L34.7 8.4 33.5 4.8C33.4 4.3 32.9 4 32.4 4.1L28.6 4.9 25.8 2.3C25.6 2.1 25.3 2 25.1 2ZM25 7C31.1 7 36 11.9 36 18 36 24.1 31.1 29 25 29 18.9 29 14 24.1 14 18 14 11.9 18.9 7 25 7ZM25 9C20 9 16 13 16 18 16 23 20 27 25 27 30 27 34 23 34 18 34 13 30 9 25 9ZM20.8 33.3L18 33.9C17.8 33.9 17.6 33.9 17.4 33.9 16.9 33.9 16.4 33.8 16 33.6L16 47C16 47.3 16.2 47.7 16.5 47.9 16.8 48 17.1 48 17.4 47.9L25 44.1 32.6 47.9C32.7 48 32.8 48 33 48 33.2 48 33.4 47.9 33.5 47.9 33.8 47.7 34 47.3 34 47L34 33.6C33.5 33.9 33 34 32.4 34 32.2 34 32 34 31.8 34L29 33.4 26.9 35.2C26.3 35.7 25.6 36 24.9 36 24.1 36 23.4 35.7 22.9 35.2Z"/>
</svg>
