<?xml-stylesheet type="text/css" href="../style.css" ?>
<svg xmlns="http://www.w3.org/2000/svg" viewBox="0 0 50 50" fill="#7fd13b">
  <path d="M47 11L26 11 26 10C26 8.3 24.7 7 23 7L3 7C1.3 7 0 8.3 0 10L0 42C0 43.7 1.3 45 3 45L9 45 9 42 13 42 13 45 37 45 37 42 41 42 41 45 47 45C48.7 45 50 43.7 50 42L50 14C50 12.3 48.7 11 47 11ZM6 34C6.2 30.4 11 30.9 11.6 29.1 11.7 28.4 11.7 28 11.7 27.4 11.4 27.3 10.9 26.3 10.8 25.5 10.6 25.5 10.3 25.3 10.1 24.4 10.1 23.9 10.3 23.7 10.4 23.6 9.7 20.6 10.1 18.1 13.5 18 14.3 18 14.9 18.2 15.2 18.7 17.7 19 16.9 22.5 16.6 23.6 16.7 23.7 16.9 23.9 16.9 24.4 16.8 25.3 16.4 25.5 16.2 25.5 16.1 26.3 15.6 27.3 15.3 27.4 15.3 28 15.3 28.4 15.4 29.1 16 30.9 20.8 30.4 21 34ZM44 34L26 34 26 32 44 32ZM44 29L26 29 26 27 44 27ZM44 24L26 24 26 22 44 22Z"/>
</svg>
