<svg xmlns="http://www.w3.org/2000/svg" viewBox="0 0 50 50" fill="#7fd13b">
  <path d="M25 7C24.8 7 24.7 7 24.6 7.1L0.6 19.1C0.2 19.3 0 19.6 0 20 0 20.4 0.2 20.7 0.6 20.9L4 22.6 4 37.2C2.8 37.6 2 38.7 2 40 2 41.3 3.5 43.6 4.2 44.6L5 45.8 5.8 44.6C6.5 43.6 8 41.3 8 40 8 38.7 7.2 37.6 6 37.2L6 23.6 8 24.6 8 22C8 18.5 13 17.8 15.1 17.5 18.3 17.1 22.3 17 25 17 27.7 17 31.7 17.1 34.9 17.5 37 17.8 42 18.5 42 22L42 24.6 49.4 20.9C49.8 20.7 50 20.4 50 20 50 19.6 49.8 19.3 49.4 19.1L25.4 7.1C25.3 7 25.2 7 25 7ZM25 19C19.4 19 10 19.4 10 22L10 26.7C12.1 25.8 16.3 25 25 25 33.7 25 37.9 25.8 40 26.7L40 22C40 19.4 30.6 19 25 19ZM25 27C14.6 27 10.3 28.2 10 29 10 31.6 19.4 32 25 32 30.5 32 39.6 31.6 40 29.2 40 29.1 40 29.1 40 29 39.7 28.2 35.4 27 25 27Z"/>
</svg>
