<?xml-stylesheet type="text/css" href="../style.css" ?>
<svg class="svg-icon" xmlns="http://www.w3.org/2000/svg" viewBox="0 0 334 120.1">
  <path class="st0" d="M175.5,54c0.2-6.1-1.7-10.4-6.4-12.5c-8.9-4-17.8-3.2-26,2c-7.6,4.8-10.4,12.3-10.2,21.1  c0.2,5.3,2.9,9,7.7,11.2C156.9,83,175,71.7,175.5,54 M0,95.1C2,85,3.7,76,5.6,67C9.7,46.6,14,26.2,18,5.8C18.8,1.7,20.1,0,24.8,0  c28.7,0.3,57.3,0.1,86,0.1c1.6,0,3.2,0.1,5.6,0.2c-1.3,6.5-2.4,12.8-4.1,18.8c-0.3,0.9-3.2,1.6-4.9,1.6c-18.2,0.1-36.3,0.1-54.5,0.1  h-6c-1.1,5.6-2,10.6-3.1,16.4h57.4c-1.3,6.5-2.3,12.3-3.8,17.8c-0.3,1.1-3,2-4.6,2c-16,0.2-32.1,0.2-48.1,0  c-3.9-0.1-5.9,0.9-6.2,5.1c-0.3,3.8-1.2,7.6-2,11.9c2.1,0.1,3.7,0.3,5.2,0.3c18.2,0,36.3-0.1,54.5,0.1c4.1,0.1,5.5-1.4,6.3-5.2  c2.9-14.5,6.2-28.8,9.1-43.3c0.7-3.6,1.9-5.1,5.9-4.9c7.3,0.3,14.5,0.1,22.5,0.1c-0.4,3.3-0.8,6-1.2,9.3c1.5-0.9,2.6-1.5,3.5-2.2  c13.4-9.8,28.2-11,43.7-6.5c10.9,3.2,17.2,10.8,20.2,22c1.4-6.2,2.6-12.4,4.2-18.5c0.4-1.6,2.3-3.9,3.6-3.9  c8.1-0.4,16.3-0.2,25.4-0.2c-1.6,8.1-3.1,15.7-4.8,24.1c1.1-0.9,1.7-1.1,2-1.6c9.7-16.1,25-23.2,42.7-24.5c11.9-0.9,24.2,0,35.9,2.3  c13.7,2.8,20.5,13.3,18.6,25.7c-8.9,0-17.9,0.1-26.9-0.1c-0.9,0-1.7-1.8-2.7-2.7c-2-1.9-3.7-4.6-6-5.6c-17.8-8-38.7,6.6-37.6,26  c0.4,5.8,2.9,10.2,8.4,12.6c10.2,4.6,24,0.9,31-7.8c1.4-1.7,4.2-3.2,6.4-3.3c8.1-0.4,16.3-0.2,25.3-0.2c-3.4,8.5-8.3,14.8-14.8,19.9  c-9.6,7.5-21,10.8-32.8,11.2c-10,0.3-20.3-0.2-30.2-2c-14.4-2.7-20.7-9.7-24.8-24c-1.3,5.8-3.1,11.6-3.8,17.5  c-0.6,4.8-2.6,6.1-7.2,5.9c-7.3-0.4-14.5-0.1-22.5-0.1c1.5-7.3,2.8-13.9,4.2-20.6c-8.8,11.5-19.7,19.5-33.7,22.3  c-13.5,2.7-27,3-39-8c-2.4,10.8-4.6,21.1-6.9,31.6H91.7c1.7-8.2,3.3-16.1,5.2-25H0z"/>
</svg>
