<svg xmlns="http://www.w3.org/2000/svg" viewBox="0 0 50 50" fill="#7fd13b">
  <path d="M46.6 2L38.5 2.4 26.9 3C26.5 3 26.1 3.4 26 3.8L25.9 4.3 24.9 10.2 22 26.8C21.9 27.2 22 27.5 22.3 27.7 22.5 28 22.8 28.1 23.2 28L39.8 25.1 45.7 24.1 46.2 24C46.6 23.9 47 23.5 47 23.1L47.6 11.5 48 3.4 48 3.4 48 3.1C48 2.8 47.9 2.5 47.7 2.3 47.5 2.1 47.2 2 46.9 2L46.6 2ZM7 4C6.8 4 6.5 4.1 6.3 4.3 5.9 4.7 5.9 5.3 6.3 5.7 6.3 5.7 11 10.6 11 16.8 11 21 8.9 24 6.7 27.2 4.4 30.5 2 34 2 39.1 2 43.4 5.6 48 10.8 48 18.1 48 19 42.7 19.8 37.6 20.2 34.9 20.7 32.1 22 29.8 21.6 29.7 21.2 29.5 20.9 29.1 20.8 29 20.6 28.8 20.5 28.6 18.9 31.3 18.4 34.4 17.9 37.3 17 42.8 16.2 46 10.9 46 6.7 46 4 42.4 4 39.1 4 34.6 6.1 31.6 8.4 28.3 10.6 25 13 21.6 13 16.8 13 9.8 7.9 4.6 7.7 4.3 7.5 4.1 7.3 4 7 4ZM45.9 4.1L45.9 5.5 37.9 13.5 45.1 20.7 45 22.1 43.9 22.3 36.5 14.9 26 25.4 24.3 25.8 24.6 24 35.1 13.5 27.7 6.1 27.9 5 29.3 4.9 36.5 12.1 44.5 4.1Z"/>
</svg>
