<?xml version="1.0" encoding="utf-8"?>
<!-- Generator: Adobe Illustrator 21.0.0, SVG Export Plug-In . SVG Version: 6.00 Build 0)  -->
<svg version="1.1" id="teal" xmlns="http://www.w3.org/2000/svg" xmlns:xlink="http://www.w3.org/1999/xlink" x="0px" y="0px"
	 viewBox="0 0 90 70" style="enable-background:new 0 0 90 70;" xml:space="preserve">
<style type="text/css">
	.st0{fill:#8551FF;}
	.st1{fill:#7FD13B;}
	.st2{fill:#D24CFF;}
	.st3{opacity:0.75;}
	.st4{fill:#919191;stroke:#919191;stroke-width:0.5;}
	.st5{fill:#FFFFFF;stroke:#000000;stroke-width:0.5;}
	.st6{fill:#1EBFE8;}
</style>
<g>
	<ellipse class="st0" cx="24.1" cy="29" rx="12.6" ry="12.6"/>
</g>
<g>
	<circle class="st1" cx="13.1" cy="41.2" r="9.9"/>
</g>
<g>
	<ellipse class="st2" cx="45" cy="39" rx="21.1" ry="22.6"/>
</g>
<g>
	<g class="st3">
		<path class="st4" d="M24.4,3c-0.1,0-0.1,0-0.2,0c-0.5,0.1-1,0.3-1.3,0.7L3.5,25.1c-0.7,0.7-0.6,1.9,0.1,2.7l40.9,40.9
			c0.7,0.7,2,0.7,2.7,0L88,27.8c0.7-0.7,0.7-1.9,0.1-2.7L68.7,3.7C68.3,3.2,67.8,3,67.2,3H24.4z M25.3,6.9h10.1L27,24.4H9.3
			L25.3,6.9z M39.7,6.9h12.3l8.4,17.5H31.4L39.7,6.9z M56.2,6.9h10.1l16,17.5H64.6L56.2,6.9z M9.6,28.3h17.3l13,30.3L9.6,28.3z
			 M31.2,28.3h29.2L45.8,62.2L31.2,28.3z M64.6,28.3h17.3L51.5,58.6L64.6,28.3z"/>
	</g>
	<g>
		<g>
			<path class="st5" d="M22.4,1c-0.1,0-0.1,0-0.2,0c-0.5,0.1-1,0.3-1.3,0.7L1.5,23.1c-0.7,0.7-0.6,1.9,0.1,2.7l40.9,40.9
				c0.7,0.7,2,0.7,2.7,0L86,25.8c0.7-0.7,0.7-1.9,0.1-2.7L66.7,1.7C66.3,1.2,65.8,1,65.2,1H22.4z M23.3,4.9h10.1L25,22.4H7.3
				L23.3,4.9z M37.7,4.9h12.3l8.4,17.5H29.4L37.7,4.9z M54.2,4.9h10.1l16,17.5H62.6L54.2,4.9z M7.6,26.3h17.3l13,30.3L7.6,26.3z
				 M29.2,26.3h29.2L43.8,60.2L29.2,26.3z M62.6,26.3h17.3L49.5,56.6L62.6,26.3z"/>
		</g>
	</g>
</g>
<g>
	<circle class="st6" cx="29.1" cy="49.4" r="14.8"/>
</g>
</svg>
