<svg xmlns="http://www.w3.org/2000/svg" viewBox="0 0 50 50" fill="#7fd13b">
  <path d="M2.8 6C2.3 6.1 2 6.5 2 7L2 15C2 15.6 2.4 16 3 16L47 16C47.6 16 48 15.6 48 15L48 7C48 6.4 47.6 6 47 6L3 6C3 6 2.9 6 2.9 6 2.9 6 2.8 6 2.8 6ZM12 8L46 8 46 14 12 14ZM2.8 20C2.3 20.1 2 20.5 2 21L2 29C2 29.6 2.4 30 3 30L47 30C47.6 30 48 29.6 48 29L48 21C48 20.4 47.6 20 47 20L3 20C3 20 2.9 20 2.9 20 2.9 20 2.8 20 2.8 20ZM36 22L46 22 46 28 36 28ZM2.8 34C2.3 34.1 2 34.5 2 35L2 43C2 43.6 2.4 44 3 44L47 44C47.6 44 48 43.6 48 43L48 35C48 34.4 47.6 34 47 34L3 34C3 34 2.9 34 2.9 34 2.9 34 2.8 34 2.8 34ZM24 36L46 36 46 42 24 42Z"/>
</svg>
