<?xml-stylesheet type="text/css" href="../style.css" ?>
<svg xmlns="http://www.w3.org/2000/svg" viewBox="0 0 50 50" fill="#7fd13b">
  <path d="M20 3C18.4 3 17 4.4 17 6L17 9 3 9C1.3 9 0 10.3 0 12L0 25C0 26.7 1.3 28 3 28L47 28C48.7 28 50 26.7 50 25L50 12C50 10.3 48.7 9 47 9L33 9 33 6C33 4.4 31.6 3 30 3ZM20 5L30 5C30.6 5 31 5.4 31 6L31 9 19 9 19 6C19 5.4 19.4 5 20 5ZM25 22C26.1 22 27 22.9 27 24 27 25.1 26.1 26 25 26 23.9 26 23 25.1 23 24 23 22.9 23.9 22 25 22ZM0 27L0 44C0 45.7 1.3 47 3 47L47 47C48.7 47 50 45.7 50 44L50 27C50 28.7 48.7 30 47 30L3 30C1.3 30 0 28.7 0 27Z"/>
</svg>
