<?xml-stylesheet type="text/css" href="../style.css" ?>
<svg xmlns="http://www.w3.org/2000/svg" viewBox="0 0 26 26">
  <path fill="#ffffff" d="M 12.03125 2.0625 C 11.710938 2.066406 11.355469 2.207031 11.03125 2.53125 L 4.4375 9 L 1 9 C 0.449219 9 0 9.449219 0 10 L 0 16 C 0 16.550781 0.449219 17 1 17 L 4.4375 17 L 11 23.4375 C 12 24.4375 13 23.925781 13 22.5625 L 13 3.28125 C 13 2.488281 12.566406 2.058594 12.03125 2.0625 Z M 19.28125 3.0625 C 18.84375 3.136719 18.507813 3.492188 18.457031 3.933594 C 18.410156 4.375 18.652344 4.796875 19.0625 4.96875 C 22 6.449219 24 9.476563 24 13 C 24 16.523438 22 19.550781 19.0625 21.03125 C 18.695313 21.15625 18.4375 21.484375 18.394531 21.867188 C 18.351563 22.253906 18.535156 22.628906 18.867188 22.832031 C 19.195313 23.03125 19.613281 23.023438 19.9375 22.8125 C 23.527344 21 26 17.289063 26 13 C 26 8.710938 23.527344 5 19.9375 3.1875 C 19.765625 3.089844 19.570313 3.046875 19.375 3.0625 C 19.34375 3.0625 19.3125 3.0625 19.28125 3.0625 Z M 17.125 5.8125 C 16.679688 5.867188 16.324219 6.214844 16.261719 6.660156 C 16.195313 7.101563 16.433594 7.535156 16.84375 7.71875 C 18.722656 8.734375 20 10.707031 20 13 C 20 15.285156 18.742188 17.265625 16.875 18.28125 C 16.515625 18.421875 16.265625 18.753906 16.238281 19.140625 C 16.210938 19.527344 16.40625 19.894531 16.742188 20.085938 C 17.082031 20.273438 17.496094 20.253906 17.8125 20.03125 C 20.308594 18.675781 22 16.03125 22 13 C 22 9.960938 20.289063 7.320313 17.78125 5.96875 C 17.640625 5.878906 17.480469 5.824219 17.3125 5.8125 C 17.25 5.804688 17.1875 5.804688 17.125 5.8125 Z M 14.53125 9.09375 C 14.054688 9.171875 13.699219 9.582031 13.691406 10.066406 C 13.683594 10.550781 14.023438 10.96875 14.5 11.0625 C 15.355469 11.285156 16 12.0625 16 13 C 16 13.9375 15.355469 14.714844 14.5 14.9375 C 13.964844 15.074219 13.644531 15.621094 13.78125 16.15625 C 13.917969 16.691406 14.464844 17.011719 15 16.875 C 16.722656 16.425781 18 14.851563 18 13 C 18 11.148438 16.722656 9.574219 15 9.125 C 14.878906 9.089844 14.75 9.082031 14.625 9.09375 C 14.59375 9.09375 14.5625 9.09375 14.53125 9.09375 Z "></path>
</svg>
